<?xml version="1.0" encoding="utf-8"?>
<!-- Generator: Adobe Illustrator 25.2.3, SVG Export Plug-In . SVG Version: 6.00 Build 0)  -->
<svg version="1.1" id="Layer_1" xmlns="http://www.w3.org/2000/svg" xmlns:xlink="http://www.w3.org/1999/xlink" x="0px" y="0px"
	 viewBox="0 0 432.3 265.1" style="enable-background:new 0 0 432.3 265.1;" xml:space="preserve">
<style type="text/css">
	.st0{fill:#DD363A;}
</style>
<g>
	<path class="st0" d="M266,68.5c0,7-0.1,14,0,21c0.1,5.1-1.9,8.7-6.4,11.2c-12.4,7.1-24.7,14.3-37,21.5c-3.9,2.3-7.8,2.4-11.7,0.1
		c-12.4-7.3-24.9-14.5-37.4-21.7c-4.3-2.5-6.2-6-6.2-10.9c0.1-14.1,0-28.2,0-42.4c0-4.7,2-8.2,6-10.5c12.5-7.2,24.9-14.4,37.4-21.7
		c3.9-2.3,7.8-2.4,11.7-0.1c12.6,7.3,25.2,14.6,37.7,21.9c3.9,2.3,5.8,5.7,5.7,10.3C265.9,54.3,266,61.4,266,68.5z M257,68.6
		c0-5.7-0.1-11.4,0-17.1c0.1-4.1-1.5-7.1-5.1-9.2c-10.1-5.8-20.2-11.7-30.3-17.5c-3.4-1.9-6.7-1.9-10.1,0.1
		c-9.8,5.7-19.7,11.5-29.6,17.1c-3.9,2.2-5.7,5.3-5.7,9.7c0.1,11.3,0.1,22.5,0,33.8c0,4.5,1.8,7.5,5.7,9.7
		c9.9,5.6,19.7,11.4,29.6,17.1c3.4,2,6.7,2,10.1,0.1c10.1-5.8,20.2-11.7,30.3-17.5c3.3-1.9,5.1-4.8,5.1-8.7
		C257,80.3,257,74.4,257,68.6z"/>
	<path class="st0" d="M231.7,192.2c2.2-1,3.6-1.5,5-2.2c16.6-8.2,36.2-1.6,44.3,15.1c7.6,15.6,0.6,35.5-15,43.1
		c-16.5,8-36.2,1.4-43.8-15.3c-2-4.4-3-9.6-3.1-14.5c-0.4-17.7-0.1-35.4-0.1-53.1c0-0.9,0-1.7,0.1-2.6c0.4-3.9,2.7-6.2,6.3-6.2
		c3.5,0,6.1,2.3,6.2,6.2c0.3,7.6,0.2,15.1,0.2,22.7C231.7,187.5,231.7,189.4,231.7,192.2z M251.3,199.5
		c-10.9,0.1-19.5,8.7-19.5,19.6c0,10.8,8.8,19.7,19.6,19.7c11,0,19.7-8.8,19.7-20C271,207.9,262.3,199.4,251.3,199.5z"/>
	<path class="st0" d="M289.5,218.9c0.1-17.9,14.6-32.5,32.3-32.5c18.2,0,32.8,14.7,32.7,33c-0.1,17.9-14.7,32.3-32.5,32.2
		C303.7,251.5,289.4,237.1,289.5,218.9z M322.2,199.5c-11.2,0-19.9,8.6-19.8,19.7c0.1,10.7,9.1,19.6,19.7,19.5
		c10.8-0.1,19.6-9,19.6-19.7C341.7,208.2,333.1,199.5,322.2,199.5z"/>
	<path class="st0" d="M117.4,219.4c-0.1,17.8-14.7,32.2-32.6,32.2c-18.1,0-32.6-14.6-32.5-32.7c0.1-17.9,14.7-32.5,32.3-32.5
		C102.9,186.4,117.5,201.2,117.4,219.4z M84.8,199.5c-10.9,0-19.7,8.6-19.7,19.5c0,10.9,9,19.9,19.9,19.8
		c10.6-0.1,19.5-9.1,19.5-19.8C104.5,208.2,95.7,199.5,84.8,199.5z"/>
	<path class="st0" d="M188.3,219.6c-0.3,18.1-14.9,32.2-33.2,31.9c-17.8-0.3-32-15-31.8-32.9c0.2-18.1,15-32.5,33-32.2
		C174.6,186.9,188.6,201.4,188.3,219.6z M175.6,219.3c0.1-10.9-8.4-19.6-19.2-19.8c-11.1-0.2-20.1,8.4-20.1,19.3
		c-0.1,10.9,8.8,20,19.7,20C166.5,238.8,175.4,230,175.6,219.3z"/>
	<path class="st0" d="M398.7,220.6c6.1,5.9,12.3,11.8,18.4,17.7c4.9,4.7,5.6,8.6,2.4,11.7c-3.1,3-6.8,2.2-11.4-2.4
		c-5.1-5-10.3-9.9-15-15.2c-2.9-3.3-4.8-2.7-7.4,0.2c-5.4,5.7-11.1,11.1-16.6,16.7c-2.5,2.5-5.3,3.3-8.5,1.6
		c-3.9-2.1-4.3-6.8-0.7-10.5c5.6-5.9,11.3-11.7,17.2-17.2c2.8-2.6,2.6-4.3-0.1-6.8c-5.8-5.5-11.4-11.2-17-16.9
		c-3.3-3.3-3.5-7-0.8-9.8c2.6-2.7,6.4-2.5,9.8,0.8c5.4,5.2,10.7,10.6,16,16c4.3,4.4,4.3,4.4,8.5,0.1c5.2-5.3,10.4-10.5,15.7-15.7
		c3.7-3.6,7.2-4.1,10.1-1.3c3,2.9,2.7,6.7-1,10.4c-6.2,6.3-12.5,12.5-18.7,18.8c-0.2,0.2-0.2,0.5-0.4,0.8
		C399.2,219.8,399,220.2,398.7,220.6z"/>
	<path class="st0" d="M40.3,220.6c0,7.8,0,15.7,0,23.5c0,4.7-2.5,7.4-6.4,7.4c-3.9,0-6.3-2.8-6.4-7.5c-0.1-15.5-0.1-31.1,0.1-46.6
		c0-3.8-0.8-5.6-5-5.2c-2.1,0.2-4.3,0.1-6.4-0.2c-3.4-0.5-5.4-2.7-5.5-6.1c-0.1-3.4,2-5.7,5.3-6.2c2.7-0.4,5.4-0.3,8.1-0.2
		c2.3,0,3.4-0.9,3.3-3.3c-0.1-4.1-0.1-8.3,0-12.4c0.1-4.7,2.6-7.4,6.5-7.3c3.9,0.1,6.2,2.8,6.2,7.5c0,3.6,0.2,7.1,0,10.7
		c-0.3,3.9,1.3,5.1,4.9,4.8c2.5-0.2,5.1-0.1,7.7,0.1c3.8,0.3,6.3,2.9,6.2,6.3c0,3.5-2.4,5.9-6.3,6.2c-2.7,0.2-5.4,0.3-8.1,0.1
		c-3.3-0.3-4.5,0.9-4.5,4.3C40.4,204.6,40.3,212.6,40.3,220.6z"/>
	<path class="st0" d="M209.5,204.3c0,12.6,0,25.1,0,37.7c0,1.6,0,3.2-0.4,4.7c-0.8,3.3-3.2,5.1-6.6,4.8c-3.4-0.2-5.4-2.3-6-5.7
		c-0.2-1-0.1-2-0.1-3c0-25.8,0-51.6,0-77.5c0-1.9,0.2-4.3,1.3-5.6c1.3-1.5,3.8-2.9,5.6-2.8c1.9,0.1,4,1.9,5.2,3.5
		c1,1.3,0.9,3.5,0.9,5.3C209.5,178.6,209.5,191.4,209.5,204.3z"/>
	<path class="st0" d="M244.5,47.7c-9.3,5.3-17.7,10.3-26.3,15.1c-0.8,0.5-2.3,0.4-3.1,0c-8.5-4.8-17-9.8-26.1-15.1
		c9.2-5.3,17.8-10.3,26.4-15.2c0.7-0.4,2-0.3,2.7,0.1C226.7,37.4,235.1,42.3,244.5,47.7z"/>
	<path class="st0" d="M220.9,103.1c0-10.8,0-20.5,0.1-30.1c0-0.9,0.6-2.1,1.3-2.5c8.4-5,16.9-9.9,26.4-15.4c0,3.1,0,5.1,0,7.2
		c0,7.1-0.1,14.3,0,21.4c0,2.6-0.8,4.1-3.2,5.4C237.6,93.4,229.7,98,220.9,103.1z"/>
	<path class="st0" d="M185.6,55.5c8.6,5,17.1,9.8,25.5,14.9c0.8,0.5,1.4,1.9,1.4,2.9c0.1,9.5,0.1,19.1,0.1,29.1
		c-1.3-0.4-2.3-0.5-3-1c-7.3-4.2-14.6-8.3-21.8-12.7c-1.3-0.8-2.7-2.5-2.7-3.8c-0.2-9.3-0.1-18.5-0.1-27.8
		C184.8,56.7,185.1,56.4,185.6,55.5z"/>
</g>
</svg>
